<svg width="35" height="35" viewBox="0 0 35 35" fill="none" xmlns="http://www.w3.org/2000/svg">
<rect width="35" height="35" rx="5" fill="#E4EDCA"/>
<path d="M9.96716 16.0625H28.7172C28.9658 16.0625 29.2043 16.1613 29.3801 16.3371C29.5559 16.5129 29.6547 16.7514 29.6547 17C29.6547 17.2486 29.5559 17.4871 29.3801 17.6629C29.2043 17.8387 28.9658 17.9375 28.7172 17.9375H9.96716C9.71852 17.9375 9.48007 17.8387 9.30425 17.6629C9.12844 17.4871 9.02966 17.2486 9.02966 17C9.02966 16.7514 9.12844 16.5129 9.30425 16.3371C9.48007 16.1613 9.71852 16.0625 9.96716 16.0625Z" fill="black"/>
<path d="M10.2648 17L18.0404 24.7737C18.2165 24.9498 18.3154 25.1885 18.3154 25.4375C18.3154 25.6864 18.2165 25.9252 18.0404 26.1012C17.8644 26.2773 17.6256 26.3761 17.3767 26.3761C17.1277 26.3761 16.889 26.2773 16.7129 26.1012L8.27543 17.6637C8.18812 17.5766 8.11885 17.4732 8.07159 17.3593C8.02433 17.2454 8 17.1233 8 17C8 16.8766 8.02433 16.7545 8.07159 16.6407C8.11885 16.5268 8.18812 16.4233 8.27543 16.3362L16.7129 7.89871C16.889 7.72268 17.1277 7.62378 17.3767 7.62378C17.6256 7.62378 17.8644 7.72268 18.0404 7.89871C18.2165 8.07475 18.3154 8.31351 18.3154 8.56246C18.3154 8.81142 18.2165 9.05018 18.0404 9.22621L10.2648 17Z" fill="black"/>
</svg>
