<svg width="14" height="14" viewBox="0 0 14 14" fill="none" xmlns="http://www.w3.org/2000/svg">
<g clip-path="url(#clip0_79_52)">
<path d="M7.39169 4.08341V3.98341H7.29169H6.41669H6.31669V4.08341V7.58341V7.64003L6.36524 7.66916L9.42774 9.50666L9.51288 9.55775L9.56457 9.47297L10.0021 8.75548L10.0548 8.66906L9.96772 8.61741L7.39169 7.08897V4.08341ZM10.2291 10.2292C9.37272 11.0856 8.21118 11.5667 7.00002 11.5667C5.78887 11.5667 4.62732 11.0856 3.7709 10.2292C2.91448 9.37279 2.43335 8.21124 2.43335 7.00008C2.43335 5.78893 2.91448 4.62738 3.7709 3.77096C4.62732 2.91454 5.78887 2.43341 7.00002 2.43341C8.21118 2.43341 9.37273 2.91454 10.2291 3.77096C11.0856 4.62738 11.5667 5.78893 11.5667 7.00008C11.5667 8.21124 11.0856 9.37279 10.2291 10.2292ZM9.27061 1.5184C8.55074 1.22022 7.7792 1.06675 7.00002 1.06675C5.4264 1.06675 3.91724 1.69187 2.80452 2.80458C1.6918 3.9173 1.06669 5.42646 1.06669 7.00008C1.06669 10.2634 3.71876 12.9334 7.00002 12.9334C8.57364 12.9334 10.0828 12.3083 11.1955 11.1956C12.3082 10.0829 12.9334 8.5737 12.9334 7.00008C12.9334 6.22091 12.7799 5.44936 12.4817 4.72949C12.1835 4.00963 11.7465 3.35554 11.1955 2.80458C10.6446 2.25362 9.99047 1.81657 9.27061 1.5184Z" fill="black" stroke="black" stroke-width="0.2"/>
</g>
<defs>
<clipPath id="clip0_79_52">
<rect width="14" height="14" fill="white"/>
</clipPath>
</defs>
</svg>
